<svg xmlns="http://www.w3.org/2000/svg" style="isolation:isolate" width="386" height="436"><defs><clipPath id="a"><path d="M0 0h386v436H0z"/></clipPath></defs><g clip-path="url(#a)"><path d="M143.565 282.309c14.98-3.959 31.75-6.176 49.44-6.176 17.69 0 34.45 2.217 49.43 6.176h65.58v56.012h-.03c.02.497.03.995.03 1.494 0 35.147-51.54 63.682-115.01 63.682-63.48 0-115.02-28.535-115.02-63.682 0-.499.01-.997.04-1.494h-.04v-56.012h65.58z" fill-rule="evenodd" fill="#4A31CF"/><path d="M200.376 360.365a7.808 7.808 0 0 0-7.804-7.803 7.808 7.808 0 0 0-7.804 7.803v27.285a7.809 7.809 0 0 0 7.804 7.804 7.809 7.809 0 0 0 7.804-7.804v-27.285z" fill-rule="evenodd" fill="#1E0C7F"/><linearGradient id="b" x1=".5" y1="0" x2=".5" y2="1.03" gradientTransform="matrix(230.026 0 0 127.364 77.987 217.134)" gradientUnits="userSpaceOnUse"><stop offset="0%" stop-color="#3f24cf"/><stop offset="100%" stop-color="#10054a"/></linearGradient><ellipse vector-effect="non-scaling-stroke" cx="193" cy="280.82" rx="115.01" ry="63.68" fill="url(#b)"/><path d="M143.565 217.309c14.98-3.959 31.75-6.176 49.44-6.176 17.69 0 34.45 2.217 49.43 6.176h65.58v56.012h-.03c.02.497.03.995.03 1.494 0 35.147-51.54 63.682-115.01 63.682-63.48 0-115.02-28.535-115.02-63.682 0-.499.01-.997.04-1.494h-.04v-56.012h65.58z" fill-rule="evenodd" fill="#4A31CF"/><path d="M200.376 296.365a7.808 7.808 0 0 0-7.804-7.803 7.808 7.808 0 0 0-7.804 7.803v27.285a7.809 7.809 0 0 0 7.804 7.804 7.809 7.809 0 0 0 7.804-7.804v-27.285z" fill-rule="evenodd" fill="#1E0C7F"/><linearGradient id="c" x1=".5" y1="0" x2=".5" y2="1.03" gradientTransform="matrix(230.026 0 0 127.364 77.987 152.134)" gradientUnits="userSpaceOnUse"><stop offset="0%" stop-color="#3f24cf"/><stop offset="100%" stop-color="#10054a"/></linearGradient><ellipse vector-effect="non-scaling-stroke" cx="193" cy="215.82" rx="115.01" ry="63.68" fill="url(#c)"/><path d="M143.565 152.309c14.98-3.959 31.75-6.176 49.44-6.176 17.69 0 34.45 2.217 49.43 6.176h65.58v56.012h-.03c.02.497.03.995.03 1.494 0 35.147-51.54 63.682-115.01 63.682-63.48 0-115.02-28.535-115.02-63.682 0-.499.01-.997.04-1.494h-.04v-56.012h65.58z" fill-rule="evenodd" fill="#4A31CF"/><path d="M200.376 232.365a7.808 7.808 0 0 0-7.804-7.803 7.808 7.808 0 0 0-7.804 7.803v27.285a7.809 7.809 0 0 0 7.804 7.804 7.809 7.809 0 0 0 7.804-7.804v-27.285z" fill-rule="evenodd" fill="#1E0C7F"/><ellipse vector-effect="non-scaling-stroke" cx="193" cy="150.82" rx="115.01" ry="63.68" fill="#AD9EFF"/><ellipse vector-effect="non-scaling-stroke" cx="193" cy="150.53" rx="59.01" ry="32.68" fill="#BD48F4" stroke="#BD48F4" stroke-opacity="100" stroke-linejoin="round" stroke-miterlimit="1.41"/><path d="M176.209 55.582c5.305-1.402 11.243-2.187 17.507-2.187 6.265 0 12.2.785 17.504 2.187h23.223v19.835h-.011c.007.176.011.352.011.529 0 12.446-18.251 22.55-40.727 22.55-22.479 0-40.729-10.104-40.729-22.55 0-.177.003-.353.014-.529h-.014V55.582h23.222z" fill-rule="evenodd" fill="#8F33BB"/><ellipse vector-effect="non-scaling-stroke" cx="193.71" cy="55.05" rx="40.73" ry="22.55" fill="#C241FF"/><path d="M191.251 48.9c.267.133.228.366-.082.521l-13.134 6.56c-.311.155-.776.174-1.043.041l-3.592-1.797c-.267-.133-.229-.366.082-.521l13.134-6.559c.31-.156.776-.175 1.043-.041l3.592 1.796zm11.899 1.679c.267.134.229.366-.081.521l-17.407 8.694c-.311.155-.777.174-1.044.041l-3.592-1.796c-.267-.134-.228-.366.083-.522l17.407-8.693c.31-.155.775-.174 1.042-.041l3.592 1.796zm13.455.903c.267.133.228.366-.082.521l-23.235 11.604c-.31.155-.776.175-1.043.041l-3.592-1.796c-.267-.133-.228-.366.082-.521l23.235-11.605c.31-.155.776-.174 1.043-.04l3.592 1.796z" fill-rule="evenodd" fill="#FFF"/><circle vector-effect="non-scaling-stroke" cx="192.46" cy="233.97" r="3.28" fill="#67E4CF"/><circle vector-effect="non-scaling-stroke" cx="192.46" cy="295.97" r="3.28" fill="#67E4CF"/><circle vector-effect="non-scaling-stroke" cx="192.46" cy="357.97" r="3.28" fill="#67E4CF"/><circle vector-effect="non-scaling-stroke" cx="192.46" cy="245.97" r="3.28" fill="#67E4CF"/><circle vector-effect="non-scaling-stroke" cx="192.46" cy="307.97" r="3.28" fill="#67E4CF"/><circle vector-effect="non-scaling-stroke" cx="192.46" cy="369.97" r="3.28" fill="#E338AA"/><circle vector-effect="non-scaling-stroke" cx="192.46" cy="257.97" r="3.28" fill="#67E4CF"/><circle vector-effect="non-scaling-stroke" cx="192.46" cy="319.97" r="3.28" fill="#E338AA"/><circle vector-effect="non-scaling-stroke" cx="192.46" cy="381.97" r="3.28" fill="#67E4CF"/><linearGradient id="d" x1=".5" y1=".01" x2=".5" y2="1" gradientTransform="matrix(119.969 0 0 152.01 133.005 .278)" gradientUnits="userSpaceOnUse"><stop offset="0%" stop-opacity="0" stop-color="#bd48f4"/><stop offset="100%" stop-opacity=".66" stop-color="#bd48f4"/></linearGradient><path fill="url(#d)" d="M133 .28h119.97v152.01H133z"/></g></svg>