<svg id="Слой_1" xmlns="http://www.w3.org/2000/svg" xmlns:xlink="http://www.w3.org/1999/xlink" viewBox="0 0 386 386"><style>.st1{fill:#5540cc}</style><defs><path id="SVGID_1_" d="M0-25h386v436H0z"/></defs><clipPath id="SVGID_2_"><use xlink:href="#SVGID_1_" overflow="visible"/></clipPath><g clip-path="url(#SVGID_2_)"><path class="st1" d="M193 378.7c-64.2 0-116.5-29.2-116.5-65.2v-1.2V253.2c0-.8.7-1.5 1.5-1.5s1.5.7 1.5 1.5v60.3c0 34.3 50.9 62.2 113.5 62.2 25.6 0 49.8-4.6 69.9-13.3 27.7-11.9 43.6-29.8 43.6-48.9v-1.4V256c0-.8.7-1.5 1.5-1.5s1.5.7 1.5 1.5V313.4c0 20.4-16.5 39.2-45.4 51.7-20.5 9-45.1 13.6-71.1 13.6z"/><path class="st1" d="M192.6 326.8c-3.5 0-6.3 2.8-6.3 6.3v27.3c0 3.5 2.8 6.3 6.3 6.3s6.3-2.8 6.3-6.3v-27.3c0-3.5-2.8-6.3-6.3-6.3zm0 42.9c-5.1 0-9.3-4.2-9.3-9.3v-27.3c0-5.1 4.2-9.3 9.3-9.3 5.1 0 9.3 4.2 9.3 9.3v27.3c0 5.1-4.2 9.3-9.3 9.3zm.4-51.3c-64.2 0-116.5-29.2-116.5-65.2 0-.8.7-1.5 1.5-1.5s1.5.7 1.5 1.5c0 34.3 50.9 62.2 113.5 62.2s113.5-27.9 113.5-62.2c0-.8.7-1.5 1.5-1.5s1.5.7 1.5 1.5c0 36-52.3 65.2-116.5 65.2z"/><path class="st1" d="M193 314.7c-64.2 0-116.5-29.2-116.5-65.2v-1.2V189.2c0-.8.7-1.5 1.5-1.5s1.5.7 1.5 1.5v60.3c0 34.3 50.9 62.2 113.5 62.2 25.6 0 49.8-4.6 69.9-13.3 27.7-11.9 43.6-29.8 43.6-48.9v-1.4V192c0-.8.7-1.5 1.5-1.5s1.5.7 1.5 1.5V249.4c0 20.4-16.5 39.2-45.4 51.7-20.5 9-45.1 13.6-71.1 13.6z"/><path class="st1" d="M192.6 263.8c-3.5 0-6.3 2.8-6.3 6.3v27.3c0 3.5 2.8 6.3 6.3 6.3s6.3-2.8 6.3-6.3v-27.3c0-3.5-2.8-6.3-6.3-6.3zm0 42.9c-5.1 0-9.3-4.2-9.3-9.3v-27.3c0-5.1 4.2-9.3 9.3-9.3 5.1 0 9.3 4.2 9.3 9.3v27.3c0 5.1-4.2 9.3-9.3 9.3zm.4-52.3c-64.2 0-116.5-29.2-116.5-65.2 0-.8.7-1.5 1.5-1.5s1.5.7 1.5 1.5c0 34.3 50.9 62.2 113.5 62.2s113.5-27.9 113.5-62.2c0-.8.7-1.5 1.5-1.5s1.5.7 1.5 1.5c0 36-52.3 65.2-116.5 65.2z"/><path class="st1" d="M193 250.7c-64.2 0-116.5-29.2-116.5-65.2v-1.2-57.8c0-.8.7-1.5 1.5-1.5s1.5.7 1.5 1.5v59c0 34.3 50.9 62.2 113.5 62.2s113.5-27.9 113.5-62.2v-1.4V128c0-.8.7-1.5 1.5-1.5s1.5.7 1.5 1.5V185.4c0 36.1-52.3 65.3-116.5 65.3z"/><path class="st1" d="M192.6 201.8c-3.5 0-6.3 2.8-6.3 6.3v27.3c0 3.5 2.8 6.3 6.3 6.3s6.3-2.8 6.3-6.3v-27.3c0-3.5-2.8-6.3-6.3-6.3zm0 42.9c-5.1 0-9.3-4.2-9.3-9.3v-27.3c0-5.1 4.2-9.3 9.3-9.3 5.1 0 9.3 4.2 9.3 9.3v27.3c0 5.1-4.2 9.3-9.3 9.3zm.4-53c-64.2 0-116.5-29.2-116.5-65.2 0-14.5 8.3-28.2 23.9-39.6 14.9-10.9 36.1-19 59.5-22.9.8-.1 1.6.5 1.7 1.3.1.8-.4 1.5-1.2 1.7-47.6 7.9-80.9 32.4-80.9 59.6 0 34.3 50.9 62.2 113.5 62.2s113.5-27.9 113.5-62.2c0-13.3-7.7-26.1-22.2-36.9C270 79.1 249.7 71.1 227 67.2c-.8-.2-1.3-1-1.2-1.8.2-.8.9-1.3 1.7-1.2 49 8.5 82 33.5 82 62.3 0 36-52.3 65.2-116.5 65.2z"/><circle vector-effect="non-scaling-stroke" class="st1" cx="192.5" cy="210.7" r="3.3"/><circle vector-effect="non-scaling-stroke" class="st1" cx="192.5" cy="272.7" r="3.3"/><circle vector-effect="non-scaling-stroke" class="st1" cx="192.5" cy="335.7" r="3.3"/><circle vector-effect="non-scaling-stroke" class="st1" cx="192.5" cy="222.7" r="3.3"/><circle vector-effect="non-scaling-stroke" class="st1" cx="192.5" cy="284.7" r="3.3"/><circle vector-effect="non-scaling-stroke" class="st1" cx="192.5" cy="347.7" r="3.3"/><circle vector-effect="non-scaling-stroke" class="st1" cx="192.5" cy="234.7" r="3.3"/><circle vector-effect="non-scaling-stroke" class="st1" cx="192.5" cy="296.7" r="3.3"/><circle vector-effect="non-scaling-stroke" class="st1" cx="192.5" cy="359.7" r="3.3"/><path class="st1" d="M193 95.4c-32.2 0-58.5 14.2-58.5 31.7s26.2 31.7 58.5 31.7c32.2 0 58.5-14.2 58.5-31.7S225.2 95.4 193 95.4zm0 66.4c-33.9 0-61.5-15.6-61.5-34.7s27.6-34.7 61.5-34.7 61.5 15.6 61.5 34.7-27.6 34.7-61.5 34.7zm.7-85.5c-23.3 0-42.2-10.8-42.2-24.1v-.4V31.9c0-.8.7-1.5 1.5-1.5s1.5.7 1.5 1.5v20.3c0 11.6 17.6 21.1 39.2 21.1s39.2-9.4 39.2-21.1v-.5-19.8c0-.8.7-1.5 1.5-1.5s1.5.7 1.5 1.5v20.3c0 13.3-18.9 24.1-42.2 24.1z"/><path class="st1" d="M193.7 10.3c-21.6 0-39.2 9.4-39.2 21.1 0 11.6 17.6 21.1 39.2 21.1s39.2-9.4 39.2-21.1c0-11.7-17.6-21.1-39.2-21.1zm0 45.1c-23.3 0-42.2-10.8-42.2-24 0-13.3 18.9-24 42.2-24 23.3 0 42.2 10.8 42.2 24s-18.9 24-42.2 24z"/><path class="st1" d="M191.3 25.2c.3.1.2.4-.1.5L178 32.3c-.3.2-.8.2-1 0l-3.6-1.8c-.3-.1-.2-.4.1-.5l13.1-6.6c.3-.2.8-.2 1 0 .1 0 3.7 1.8 3.7 1.8zm11.9 1.6c.3.1.2.4-.1.5L185.7 36c-.3.2-.8.2-1 0l-3.6-1.8c-.3-.1-.2-.4.1-.5l17.4-8.7c.3-.2.8-.2 1 0l3.6 1.8zm13.4 1c.3.1.2.4-.1.5l-23.2 11.6c-.3.2-.8.2-1 0l-3.6-1.8c-.3-.1-.2-.4.1-.5L212 26c.3-.2.8-.2 1 0l3.6 1.8z"/></g></svg>