<svg id="Layer_1" data-name="Layer 1" xmlns="http://www.w3.org/2000/svg" viewBox="0 0 386 436"><defs><style>.cls-1{fill:#1b0b73}.cls-9{fill:#1b0b72}.cls-10,.cls-11{fill:none;stroke-linecap:round;stroke-linejoin:round;stroke-width:2px}.cls-10{stroke:#1b0b72}.cls-11{stroke:#32218c}.cls-13{fill:#67e4cf}.cls-14{fill:#32218c}</style><radialGradient id="radial-gradient" cx="-414.56" cy="938.96" r="102.13" gradientTransform="matrix(-1 0 0 .55 -218.31 -227.01)" gradientUnits="userSpaceOnUse"><stop offset="0" stop-color="#1e0c6f"/><stop offset=".64" stop-color="#2d1992" stop-opacity=".34"/><stop offset="1" stop-color="#3420a3" stop-opacity="0"/></radialGradient><radialGradient id="radial-gradient-2" cx="-409.74" cy="976.4" r="122.9" gradientTransform="matrix(-1 0 0 .55 -208.24 -290.21)" gradientUnits="userSpaceOnUse"><stop offset="0" stop-color="#1e0c6f"/><stop offset=".19" stop-color="#1f0d71" stop-opacity=".96"/><stop offset=".38" stop-color="#210f77" stop-opacity=".86"/><stop offset=".57" stop-color="#251380" stop-opacity=".67"/><stop offset=".76" stop-color="#2b188d" stop-opacity=".42"/><stop offset=".95" stop-color="#321e9e" stop-opacity=".1"/><stop offset="1" stop-color="#3420a3" stop-opacity="0"/></radialGradient><linearGradient id="linear-gradient" x1="96.26" y1="300.89" x2="95.3" y2="251.64" gradientTransform="matrix(1 0 0 -1 0 438)" gradientUnits="userSpaceOnUse"><stop offset="0" stop-color="#fff" stop-opacity="0"/><stop offset=".58" stop-color="#67e4cf"/></linearGradient></defs><path class="cls-1" d="M127.52 261.84h129.92l117.71.11v6.38a8.36 8.36 0 0 1-4.62 7.45L212.06 354.5a45.1 45.1 0 0 1-40.07 0l-158.77-79a7.79 7.79 0 0 1-4.32-7v-6.7z"/><path d="M15.45 272.7a12 12 0 0 1 0-21.5l154.86-77.44a48.59 48.59 0 0 1 43.4 0l154.91 77.44a12 12 0 0 1 0 21.5l-154.91 77.43a48.52 48.52 0 0 1-43.4 0z" fill="#5042bb"/><ellipse cx="186.8" cy="274.57" rx="162.76" ry="74.3" fill="url(#radial-gradient)"/><path d="M127.52 215.81h129.92l117.71.11v6.26a8.3 8.3 0 0 1-4.62 7.44l-158.47 78.74a45 45 0 0 1-40.07 0l-158.77-79a7.79 7.79 0 0 1-4.32-7v-6.6z" fill="#1d1921"/><path d="M15.45 226.56a12 12 0 0 1 0-21.5l154.86-77.43a48.46 48.46 0 0 1 43.4 0l154.91 77.43a12 12 0 0 1 0 21.5L213.71 304a48.52 48.52 0 0 1-43.4 0z" fill="#3420a3"/><ellipse cx="190.14" cy="229.29" rx="195.86" ry="89.42" fill="url(#radial-gradient-2)"/><path class="cls-1" d="M127.52 169.57h129.92l117.71.11v6.38a8.36 8.36 0 0 1-4.62 7.44l-158.47 78.72a45 45 0 0 1-40.07 0l-158.77-79a7.78 7.78 0 0 1-4.32-7v-6.71z"/><path d="M15.45 180.43a12 12 0 0 1 0-21.51L170.31 81.5a48.46 48.46 0 0 1 43.4 0l154.91 77.42a12 12 0 0 1 0 21.51l-154.91 77.44a48.59 48.59 0 0 1-43.4 0z" fill="#e5e0ff"/><path d="M20.9 180.43a12 12 0 0 1 0-21.51l149.41-74.7a48.46 48.46 0 0 1 43.4 0l149.41 74.7a12 12 0 0 1 0 21.51l-149.41 74.7a48.46 48.46 0 0 1-43.4 0z" fill="#1e0c7f"/><path class="cls-9" d="M119 205.14a11.17 11.17 0 0 1 8.68 0c2.43 1.17 2.47 3.08.1 4.25a11.22 11.22 0 0 1-8.7 0c-2.45-1.16-2.49-3.07-.08-4.25zm28.68 15.94a11.29 11.29 0 0 1 8.69 0c2.42 1.17 2.46 3.08.09 4.26a11.2 11.2 0 0 1-8.69 0c-2.42-1.17-2.51-3.04-.09-4.26z"/><path class="cls-10" d="M122.99 208.14l65.56 32.78"/><path class="cls-11" d="M122.99 205.39l65.56 32.77"/><path class="cls-10" d="M188.55 240.92l140.68-70.34-43.76-21.89-39.37-19.68"/><path class="cls-11" d="M188.55 238.16l140.68-70.34-43.76-21.88-39.37-19.68"/><path d="M124.07 205.45l102.29-51.14m-72.23 66.94l60.95-30.47" stroke="#67e4cf" fill="none" stroke-linecap="round" stroke-linejoin="round" stroke-width="2"/><path class="cls-13" d="M118.91 203.73a11.28 11.28 0 0 1 8.74-.07c2.43 1.17 2.44 3.14 0 4.29a11.23 11.23 0 0 1-8.74.06c-2.39-1.16-2.41-3.08 0-4.28zm28.71 15.95a11.21 11.21 0 0 1 8.75-.07c2.42 1.17 2.43 3.13 0 4.29a11.21 11.21 0 0 1-8.75 0c-2.36-1.1-2.36-3.02 0-4.22z"/><path class="cls-9" d="M72.43 160.71c12.87-6.4 34-6.48 47.14-.15s13.36 16.7.49 23.08-34 6.49-47.15.16-13.36-16.67-.48-23.09z"/><path class="cls-14" d="M72.38 157.28c12.84-6.4 33.91-6.47 47-.16s13.33 16.63.48 23-33.91 6.47-47 .17-13.33-16.61-.48-23.01z"/><path class="cls-13" d="M80.55 161.23c8.42-4.18 22.23-4.24 30.82-.11s8.74 10.9.33 15.09-22.24 4.24-30.83.11c-4.3-2.09-6.48-4.79-6.53-7.53s2.04-5.47 6.21-7.56z"/><path class="cls-9" d="M182.49 107a3.87 3.87 0 0 0-3-.06L140 126.63c-.76.38-.65 1 .23 1.44l3.2 1.5a3.92 3.92 0 0 0 3 .06L186 109.9c.75-.39.66-1.05-.23-1.44zm2.33 11.35a3.61 3.61 0 0 0-2.64-.23l-29.89 15c-.58.28-.33.85.56 1.27l3.2 1.49a3.56 3.56 0 0 0 2.64.24l29.89-15c.58-.3.32-.86-.56-1.28zm18.18 3.82a3.72 3.72 0 0 0-2.82-.15l-34.81 17.41c-.66.35-.5.95.39 1.37l3.19 1.49a3.73 3.73 0 0 0 2.82.15l34.8-17.44c.67-.33.5-.94-.39-1.35z"/><path class="cls-14" d="M182.49 104.65a3.87 3.87 0 0 0-3-.07L140 124.32c-.76.39-.65 1 .23 1.44l3.22 1.56a3.92 3.92 0 0 0 3 .06L186 107.59c.75-.39.66-1-.23-1.44zm2.33 11.35a3.56 3.56 0 0 0-2.64-.23l-29.89 15c-.58.28-.33.86.56 1.27l3.2 1.5a3.61 3.61 0 0 0 2.64.24l29.89-15c.58-.29.32-.86-.56-1.27zm18.18 3.86a3.72 3.72 0 0 0-2.82-.14l-34.81 17.41c-.66.34-.5 1 .39 1.36l3.19 1.5a3.73 3.73 0 0 0 2.82.14l34.81-17.42c.67-.33.5-.94-.39-1.34z"/><path fill="url(#linear-gradient)" d="M74.34 118.79h43.58v50.15H74.34z"/></svg>