<svg id="Layer_1" data-name="Layer 1" xmlns="http://www.w3.org/2000/svg" viewBox="0 0 386 436"><defs><style>.cls-1{fill:none;stroke:#5540cc;stroke-linecap:round;stroke-linejoin:round;stroke-width:2px}</style></defs><path class="cls-1" d="M127.7 209.86l98-49M156.5 225l58.39-29.19"/><path d="M122.75 208.21a10.78 10.78 0 0 1 8.38-.06c2.32 1.12 2.33 3 0 4.11a10.78 10.78 0 0 1-8.38.05c-2.29-1.11-2.31-2.95 0-4.1zm27.51 15.28a10.74 10.74 0 0 1 8.38-.06c2.32 1.12 2.33 3 0 4.11a10.78 10.78 0 0 1-8.38.05c-2.26-1.11-2.26-2.95 0-4.1z" fill="#5540cc" fill-rule="evenodd"/><path class="cls-1" d="M337.93 242.51l24 12a11.54 11.54 0 0 1 0 20.64l-148.61 74.32a46.53 46.53 0 0 1-41.65 0L23 275.16a11.54 11.54 0 0 1 0-20.64l23.71-11.86"/><path class="cls-1" d="M338.16 198.35L362 210.24a11.54 11.54 0 0 1 0 20.64L213.32 305.2a46.6 46.6 0 0 1-41.65 0L23 230.88a11.54 11.54 0 0 1 0-20.64l23.4-11.68"/><path class="cls-1" d="M23 186.61A11.54 11.54 0 0 1 23 166l148.67-74.35a46.6 46.6 0 0 1 41.65 0L362 166a11.54 11.54 0 0 1 0 20.64l-148.68 74.28a46.6 46.6 0 0 1-41.65 0z"/><ellipse class="cls-1" cx="101.66" cy="174.6" rx="31.3" ry="15.63"/><ellipse class="cls-1" cx="101.66" cy="174.6" rx="21.56" ry="10.77"/></svg>