<svg width="29" height="34" viewBox="0 0 29 34" fill="none" xmlns="http://www.w3.org/2000/svg">
<path d="M25.2672 2C25.2672 2 21.8015 8.67773 25.2672 16.625C28.7328 24.5723 25.2672 31.25 25.2672 31.25" stroke="#FFCD44" stroke-width="4" stroke-linecap="round"/>
<path d="M25.2672 16.625C28.7328 24.5723 25.2672 31.25 25.2672 31.25" stroke="#FF943C" stroke-width="4" stroke-linecap="round"/>
<path d="M14.4212 2C14.4212 2 10.9555 8.67773 14.4212 16.625C17.8869 24.5723 14.4212 31.25 14.4212 31.25" stroke="#FFCD44" stroke-width="4" stroke-linecap="round"/>
<path d="M14.4212 16.625C17.8869 24.5723 14.4212 31.25 14.4212 31.25" stroke="#FF943C" stroke-width="4" stroke-linecap="round"/>
<path d="M3.57502 2C3.57502 2 0.109334 8.67773 3.57502 16.625C7.0407 24.5723 3.57502 31.25 3.57502 31.25" stroke="#FFCD44" stroke-width="4" stroke-linecap="round"/>
<path d="M3.57502 16.625C7.0407 24.5723 3.57502 31.25 3.57502 31.25" stroke="#FF943C" stroke-width="4" stroke-linecap="round"/>
</svg>
